<?xml version="1.0" encoding="utf-8"?><svg xmlns="http://www.w3.org/2000/svg" viewBox="0 0 100 100" width="100" height="100"><rect width="100" height="100" rx="22" fill="#000"/><g transform="translate(-20.47 -5.97) scale(0.1382)"><path fill="#8B4FE8" d="M439.208 154.197C447.494 153.256 455.883 153.841 463.958 155.923C479.992 160.341 493.655 170.871 502.011 185.25C510.948 200.882 510.009 212.099 510.074 229.303L510.115 265.097L510.035 371.893L509.964 536.273L510.007 577.821C510.021 589.834 511.109 606.791 507.862 618.012C493.886 666.32 430.562 678.073 397.691 641.371C391.663 634.641 388.308 628.49 384.127 620.773C377.319 620.528 372.781 620.096 366.129 618.664C336.216 611.82 312.419 585.123 310.088 554.464C309.646 548.648 309.868 543.096 310.075 537.289C283.901 524.633 267.521 504.567 263.555 475.212C261.362 458.987 264.85 441.446 272.613 427.072C275.199 422.284 279.605 416.965 282.966 412.617C273.967 397.309 271.349 375.457 274.306 358.178C278.24 335.203 291.535 316.386 310.11 302.868C309.443 300.114 308.924 297.327 308.556 294.518C303.585 253.677 333.325 211.937 374.983 207.116C386.085 177.615 406.935 157.53 439.208 154.197Z"/><path fill="#150F3A" d="M445.223 164.714C460.903 165.231 473.216 169.272 484.559 180.635C491.545 187.495 496.325 196.283 498.288 205.875C499.72 212.992 499.225 222.376 499.185 229.791L499.082 260.027L499.137 367.13C489 354.854 475.98 345.486 459.717 343.294C429.024 339.159 399.255 358.04 385.478 384.897C375.574 404.205 378.363 424.211 358.788 438.222C347.874 446.033 335.001 448.13 321.906 446.064C307.649 443.816 297.184 433.911 289.105 422.656C291.424 419.603 293.48 417.469 296.227 414.849L296.57 414.545C296.752 413.525 293.221 408.139 292.371 406.594C282.286 388.247 281.736 369.63 287.687 349.82C289.818 368.947 295.828 387.019 312.68 398.213C324.458 406.291 344.2 408.071 354.312 396.214C368.445 379.644 346.902 360.523 359.824 341.555C370.402 326.028 382.922 324.654 399.869 320.663C425.447 314.64 451.231 302.566 464.896 279.041C482.641 248.511 478.784 211.276 454.383 185.688C446.494 177.415 438.686 172.846 429.048 166.995C434.132 165.616 439.984 165.065 445.223 164.714Z"/><path fill="#150F3A" d="M412.341 174.365C414.402 174.372 417.913 175.651 419.907 176.374C437.371 182.729 451.574 195.795 459.361 212.669C466.218 227.762 466.436 247.894 460.506 263.321C450.492 290.593 423.736 303.816 397.126 310.125C379.582 314.286 367.7 314.905 354.914 329.365C344.657 340.222 342.129 354.968 345.461 369.273C347.377 377.497 352.115 388.086 340.946 392.55C334.989 394.932 328.172 393.181 322.421 390.779C301.012 379.769 295.102 349.408 302.192 328.183C305.461 318.397 315.115 313.077 323.297 307.76C322.305 305.115 321.284 303.009 320.072 300.48C336.36 281.912 361.038 276.372 384.302 272.626C403.823 269.482 422.165 262.103 425.114 240.153C428.483 215.07 415.297 201.111 390.95 198.232C395.235 189.551 404.955 180.363 412.341 174.365Z"/><path fill="#150F3A" d="M447.993 409.576C471.67 407.592 484.6 424.265 492.821 444.492C502.402 468.067 498.905 498.122 499.04 523.352C499.188 537.591 499.248 551.832 499.219 566.072C499.228 572.156 499.931 591.989 497.72 596.173C484.325 621.529 450.462 632.603 425.363 620.781C410.047 613.739 398.215 600.823 392.538 584.951C383.984 560.511 393.944 537.575 418.805 529.245C423.78 528.012 429.161 527.317 433.764 529.868C445.278 536.247 432.995 546.095 429.124 552.637C425.678 558.461 424.767 565.63 426.502 572.028C427.806 576.981 432.853 582.835 437.548 585C457.928 594.392 483.375 580.856 492.268 561.624C498.883 547.318 500.064 531.636 495.187 517.06C489.688 501.169 476.667 487.945 461.624 480.773C441.027 470.953 416.835 471.402 395.698 478.69C405.617 468.028 416.241 456.45 421.305 442.622C426.942 427.227 429.62 413.954 447.993 409.576Z"/><path fill="#150F3A" d="M281.739 432.704C284.252 435.356 286.807 438.009 289.344 440.685C317.076 469.928 367.301 460.862 383.983 424.557C386.449 419.191 387.745 412.412 389.085 406.519C392.031 393.558 399.346 381.674 408.631 372.236C420.218 360.55 435.986 353.967 452.442 353.946C464.345 353.936 477.118 359.703 485.227 368.281C502.724 386.79 499.245 402.073 499.095 425.108C498.384 425.647 497.683 426.199 496.992 426.763C495.802 424.706 494.53 422.699 493.176 420.746C478.24 399.188 450.096 389.236 428.228 406.913C414.935 417.658 414.753 433.216 406.54 447.427C387.95 479.593 351.218 499.912 313.867 493.748C300.737 491.546 281.695 482.692 274.045 471.604C273.781 455.789 275.83 447.38 281.739 432.704Z"/><path fill="#150F3A" d="M337.684 588.643C336.446 559.1 341.461 536.311 362.342 513.867C379.548 495.471 398.478 485.796 423.613 484.222C467.868 481.302 508.017 527.254 475.097 566.316C473.15 568.626 471.423 569.123 469.262 571.03C461.453 577.922 436.258 579.845 436.776 565.411C437.151 554.958 451.477 551.486 450.465 536.071C450.244 532.366 448.898 528.816 446.606 525.896C434.574 510.67 409.044 517.196 396.539 528.278C371.349 550.599 374.337 584.308 393.297 609.418C393.913 610.107 394.521 610.802 395.122 611.503L393.791 611.735C391.32 608.476 385.179 610.501 380.341 609.552C366.737 608.492 344.856 601.355 337.684 588.643Z"/><path fill="#150956" d="M393.297 609.418C393.913 610.107 394.521 610.802 395.122 611.503L393.791 611.735C391.32 608.476 385.179 610.501 380.341 609.552C385.076 609.28 388.37 609.999 393.297 609.418Z"/><path fill="#150F3A" d="M384.772 209.342C404.685 209.881 419.386 219.359 413.3 242.679C409.671 256.586 391.073 259.827 378.988 262.249C364.789 265.095 350.324 267.596 336.706 274.006C330.381 277.109 324.37 281.514 318.965 285.997C319.464 281.035 319.847 276.301 320.931 271.415C328.058 239.286 351.276 219.636 383.665 217.281L384.772 209.342Z"/><path fill="#150F3A" d="M278.7 491.258C304.825 508.403 330.808 509.16 359.951 500.488C355.255 505.378 349.294 511.484 345.436 516.947C335.166 531.49 328.2 551.171 326.861 568.862C326.231 569.276 325.674 569.66 325.059 570.091C321.089 559.184 319.415 543.086 323.919 532.054C303.676 522.015 288.372 513.448 278.7 491.258Z"/><path fill="#150F3A" d="M393.791 611.735L395.122 611.503C395.984 612.612 396.675 613.421 397.634 614.445C410.169 627.952 427.57 635.908 445.986 636.55C466.414 637.072 482.309 630.072 496.838 616.156C494.968 622.177 491.916 627.764 487.863 632.592C478.633 643.602 465.432 650.525 451.127 651.855C436.993 653.12 422.345 648.063 411.468 639.05C405.174 633.833 394.526 619.887 393.791 611.735Z"/><path fill="#150956" d="M499.095 425.108C499.104 425.853 499.387 429.614 498.779 430.045C498.409 429.78 498.076 428.937 497.89 428.559L496.992 426.763C497.683 426.199 498.384 425.647 499.095 425.108Z"/><path fill="#150956" d="M325.059 570.091C325.674 569.66 326.231 569.276 326.861 568.862L326.89 572.088C326.828 572.41 326.943 572.837 326.645 573.073C325.903 572.974 325.245 570.586 325.059 570.091Z"/><path fill="#05F5FD" d="M573.747 153.181C587.878 150.952 605.497 155.431 617.847 162.476C633.89 171.527 645.625 186.644 650.414 204.431C672.395 205.662 693.158 221.152 704.295 239.512C715.677 258.275 718.21 277.715 713.174 298.929C744.805 316.575 760.193 359.815 751.853 394.081C750.256 400.643 747.626 406.979 745.097 413.22C748.471 416.736 752.374 423.243 754.587 427.555C764.92 447.453 766.877 470.655 760.025 492.003C753.641 511.567 738.147 529.094 719.814 538.493C723.009 573.966 706.09 601.58 673.333 615.568C662.605 619.954 653.516 621.102 642.076 620.83C640.523 627.667 638.002 633.192 633.761 638.828C612.449 667.149 570.635 671.964 542.668 650.66C529.983 641.024 521.706 626.692 519.7 610.889C518.839 604.233 519.118 593.612 519.122 586.527L519.146 549.065L519.187 421.128L519.266 277.242L519.111 231.519C519.053 210.565 517.194 194.054 531.204 176.581C542.42 162.593 556.097 155.486 573.747 153.181Z"/><path fill="#150F3A" d="M576.29 163.202C580.052 162.745 585.558 163.075 589.311 163.388L555.052 192.729C554.525 227.531 555.293 264.906 555.438 299.821C547.895 302.641 542.119 307.778 544.717 316.845C547.99 328.266 564.99 330.652 570.037 318.627C571.485 315.162 571.425 311.25 569.873 307.83C567.784 303.316 565.024 301.896 560.766 300.277L560.531 194.964C569.205 187.155 578.848 180.138 587.348 172.083C590.049 169.523 592.863 166.938 595.762 164.609C608.642 168.143 616.283 172.599 625.953 181.651C615.485 189.571 605.004 200.113 594.461 208.607C594.852 224.99 594.526 242.374 594.48 258.83C589.423 261.322 585.281 264.31 584.305 270.289C583.757 273.703 584.646 277.192 586.761 279.927C589.854 283.933 592.847 284.798 597.425 285.469L596.965 409.497C593.175 411.576 589.622 414.04 587.782 418.139C586.389 421.314 586.401 424.929 587.815 428.095C590.817 434.828 599.581 438.38 606.33 434.949C609.692 433.201 612.176 430.134 613.187 426.482C615.561 418.08 610.427 412.185 602.619 409.974L602.78 284.701C605.982 282.755 608.335 280.703 609.812 277.143C611.18 273.885 611.111 270.2 609.621 266.995C607.599 262.665 604.376 260.704 600.085 259.198L600.043 210.677C606.617 204.165 622.154 191.943 629.922 185.315L632.961 189.795C637.913 197.625 639.922 202.635 641.281 211.706C641.515 213.267 643.678 213.638 645.087 214.206C644.07 217.037 635.4 224.195 633.03 228.004L633.06 363.635C636.124 366.821 638.677 369.548 642.092 372.39C632.97 381.118 633.643 392.03 645.985 396.797L646.076 427.717C642.396 431.524 637.328 435.772 633.297 439.446L612.077 458.938C608.2 462.447 602.238 467.529 598.877 471.256C597.942 491.356 598.566 516.561 598.569 536.917L598.518 651.249C595.308 652.27 592.004 652.968 588.656 653.332C573.212 655.046 559.954 651.569 547.794 641.864C527.281 625.492 528.972 606.45 529.064 582.925L529.295 538.395L529.062 405.993L529.152 276.869L529.047 232.073C529.041 224.802 528.729 213.833 529.427 206.974C530.465 197.601 534.225 188.737 540.244 181.476C549.562 170.297 561.997 164.575 576.29 163.202Z"/><path fill="#05F5FD" d="M557.374 357.644C558.976 357.783 560.159 357.944 561.724 358.405C565.175 359.419 568.071 361.783 569.756 364.961C571.511 368.37 571.745 372.362 570.402 375.954C568.541 380.843 565.228 382.579 560.872 384.572C560.674 406.129 560.697 427.688 560.942 449.245C576.141 456.661 575.047 474.232 558.702 476.386C557.484 476.294 556.275 476.101 555.089 475.807C551.635 474.963 548.293 472.759 546.466 469.659C544.767 466.716 544.336 463.209 545.272 459.942C546.912 454.426 550.729 452.064 555.333 449.51C554.985 427.889 555.279 405.399 555.236 383.719C553.419 383.222 551.889 382.724 550.266 381.709C547.277 379.862 545.193 376.853 544.515 373.405C543.887 369.992 544.658 366.469 546.654 363.63C549.502 359.645 552.81 358.464 557.374 357.644Z"/><path fill="#150F3A" d="M556.553 455.634C560.576 454.73 564.588 457.195 565.599 461.193C566.611 465.191 564.255 469.267 560.286 470.386C557.621 471.137 554.76 470.382 552.812 468.415C550.865 466.448 550.139 463.579 550.916 460.922C551.694 458.266 553.852 456.241 556.553 455.634Z"/><path fill="#150F3A" d="M555.384 364.117C557.932 363.221 560.766 363.79 562.771 365.6C564.776 367.41 565.631 370.171 565 372.797C564.369 375.423 562.352 377.494 559.744 378.195C555.916 379.224 551.958 377.042 550.786 373.255C549.613 369.468 551.644 365.431 555.384 364.117Z"/><path fill="#05F5FD" d="M557.336 508.043C574.673 507.646 578.96 527.154 562.309 534.251L562.26 595.886C577.228 600.309 576.747 618.09 561.68 621.912C555.501 622.139 549.775 620.39 547.142 614.253C545.789 611.089 545.803 607.506 547.182 604.352C549.182 599.744 552.49 597.681 556.834 595.841C556.458 575.536 556.926 554.784 556.668 534.337C556.185 534.132 555.704 533.922 555.226 533.707C542.556 527.964 542.665 512.062 557.336 508.043Z"/><path fill="#150F3A" d="M557.506 601.602C561.42 600.413 565.569 602.556 566.864 606.435C568.159 610.315 566.128 614.521 562.285 615.92C559.705 616.859 556.818 616.323 554.747 614.521C552.676 612.718 551.746 609.934 552.32 607.248C552.893 604.563 554.879 602.401 557.506 601.602Z"/><path fill="#150F3A" d="M556.783 514.299C559.315 513.362 562.156 513.889 564.184 515.671C566.211 517.453 567.099 520.204 566.495 522.835C565.891 525.466 563.893 527.554 561.291 528.273C557.496 529.323 553.548 527.195 552.339 523.447C551.13 519.699 553.09 515.665 556.783 514.299Z"/><path fill="#150F3A" d="M651.327 214.768C667.92 216.044 684.24 229.587 694.417 241.889C686.22 249.344 678.235 255.841 669.941 263.67C669.837 276.822 669.881 289.976 670.071 303.127C658.726 307.605 655.441 320.856 664.049 327.3C678.739 338.297 699.158 313.996 675.195 303.676C675.354 291.044 675.445 278.412 675.469 265.779C680.037 262.614 692.033 251.141 697.401 246.688C707.373 266.738 706.342 282.49 702.095 304.207C742.651 328.099 754.988 373 733.201 414.66C739.633 421.07 744.464 430.147 748.095 438.363C740.018 445.076 732.001 453.327 724.3 460.618C713.287 471.045 701.908 481.315 691.057 491.88C686.265 488.47 681.542 486.395 675.721 488.995C672.27 490.556 669.619 493.476 668.398 497.062C667.291 500.312 667.602 503.879 669.256 506.889C671.475 510.913 674.326 512.376 678.466 513.692L678.474 602.215C664.498 609.099 654.366 611.115 638.621 610.881L638.712 570.568C644.901 569.092 649.92 566.462 651.399 559.638C652.143 556.289 651.498 552.78 649.612 549.914C646.931 545.902 643.498 544.565 639.008 543.691L639.003 485.524C644.015 479.446 658.97 466.19 665.179 460.45C677.665 448.933 689.952 437.202 702.036 425.264L701.991 383.156C702.848 382.996 703.701 382.816 704.55 382.616C716.61 379.681 718.126 363 707.519 358.074C704.031 356.461 700.043 356.31 696.442 357.654C684.961 362.023 685.051 377.88 696.774 382.399C696.595 395.392 696.869 409.039 696.928 422.082C691.984 427.999 683.033 436.068 677.339 441.417C667.679 450.483 658.064 459.597 648.497 468.761C645.098 472.01 636.069 480.348 633.545 483.868L633.491 544.251C620.444 552.97 622.356 560.421 632.629 570.02C633.423 570.762 633.233 611.551 632.909 615.203C631.489 631.243 617.445 643.299 604.026 649.14L604.206 473.479C609.684 467.963 616.652 462.042 622.48 456.726L651.466 429.901L651.336 397.369C668.56 390.423 665.499 371.511 648.41 370.41C644.555 367.486 641.768 364.698 638.397 361.248C637.975 343.138 638.32 324.599 638.4 306.442L638.473 228.782C643.541 223.916 646.908 220.104 651.327 214.768Z"/><path fill="#150F3A" d="M749.693 443.888C750.062 444.187 750.522 444.747 750.643 445.188C760.928 482.814 743.375 517.759 708.255 533.074C709.986 540.057 710.513 547.284 709.814 554.445C708.082 571.816 699.438 585.724 686.16 596.673L684.622 597.942L683.952 597.82C683.388 589.884 683.753 577.115 683.728 568.85L683.643 513.959C691.875 510.569 696 505.591 693.573 496.382C712.886 479.396 730.908 461.176 749.693 443.888Z"/><path fill="#150F3A" d="M647.008 376.659C649.643 375.863 652.503 376.572 654.46 378.508C656.417 380.444 657.158 383.297 656.389 385.94C655.621 388.584 653.467 390.595 650.777 391.18C646.839 392.037 642.927 389.632 641.914 385.731C640.902 381.83 643.15 377.826 647.008 376.659Z"/><path fill="#150F3A" d="M670.23 309.78C674.116 308.414 678.374 310.449 679.751 314.331C681.129 318.212 679.106 322.476 675.229 323.865C671.335 325.26 667.049 323.227 665.665 319.329C664.282 315.431 666.328 311.151 670.23 309.78Z"/><path fill="#150F3A" d="M555.943 306.131C559.965 305.181 563.992 307.687 564.917 311.715C565.842 315.743 563.311 319.754 559.277 320.654C555.279 321.545 551.31 319.042 550.394 315.049C549.477 311.056 551.956 307.072 555.943 306.131Z"/><path fill="#150F3A" d="M598.612 415.781C602.572 414.824 606.565 417.231 607.569 421.179C608.573 425.128 606.214 429.149 602.278 430.2C599.689 430.891 596.929 430.137 595.052 428.226C593.174 426.315 592.469 423.542 593.206 420.966C593.943 418.39 596.008 416.41 598.612 415.781Z"/><path fill="#150F3A" d="M679.217 493.802C683.21 492.832 687.232 495.291 688.187 499.288C689.143 503.284 686.67 507.297 682.669 508.238C678.69 509.175 674.702 506.716 673.752 502.74C672.801 498.764 675.244 494.768 679.217 493.802Z"/><path fill="#150F3A" d="M597.169 264.778C601.14 264.508 604.615 267.423 605.04 271.381C605.465 275.338 602.687 278.925 598.749 279.503C596.062 279.898 593.374 278.791 591.744 276.618C590.114 274.445 589.804 271.554 590.935 269.084C592.067 266.615 594.459 264.962 597.169 264.778Z"/><path fill="#150F3A" d="M635.432 550.362C637.92 549.393 640.738 549.846 642.796 551.548C644.854 553.249 645.829 555.931 645.345 558.557C644.861 561.183 642.993 563.341 640.463 564.196C636.673 565.478 632.553 563.498 631.186 559.738C629.819 555.978 631.704 551.814 635.432 550.362Z"/><path fill="#150F3A" d="M700.401 362.768C704.297 362.165 707.972 364.753 708.715 368.625C709.459 372.497 707.005 376.262 703.162 377.145C700.55 377.746 697.819 376.872 696.041 374.866C694.263 372.861 693.722 370.045 694.63 367.523C695.539 365.002 697.752 363.178 700.401 362.768Z"/></g></svg>
